<svg width="120" height="58" viewBox="0 0 120 58" fill="none" xmlns="http://www.w3.org/2000/svg">
<g clip-path="url(#clip0_2038_946)">
<path d="M103.603 28.6868C105.322 28.6868 107.029 28.6868 108.736 28.6868C108.91 28.6868 109.003 28.7371 109.046 28.9346C109.711 31.9693 110.753 34.8957 111.538 37.8956C111.825 38.9871 112.119 40.0787 112.239 41.178C112.367 41.2322 112.429 41.1897 112.44 41.1277C112.831 38.7278 113.598 36.4208 114.232 34.0828C114.689 32.399 115.196 30.719 115.351 28.9694C115.374 28.7255 115.49 28.6868 115.688 28.6868C117.023 28.6868 118.359 28.6907 119.694 28.6868C119.957 28.6868 120.035 28.772 119.988 29.0391C119.876 29.6662 119.679 30.2661 119.474 30.8661C118.672 33.2273 117.681 35.5111 116.76 37.8259C115.603 40.729 114.492 43.6438 113.632 46.6553C113.067 48.6294 112.239 50.5145 111.414 52.3957C111.221 52.8331 110.973 53.2512 110.718 53.6576C109.913 54.9311 108.775 55.7711 107.331 56.1969C106.378 56.4795 105.407 56.5995 104.42 56.6343C103.951 56.6498 103.944 56.6382 103.897 56.2008C103.808 55.3956 103.719 54.5905 103.646 53.7854C103.595 53.2628 103.607 53.2667 104.106 53.2047C104.606 53.1467 105.097 53.0577 105.581 52.9028C106.831 52.5041 107.652 51.6177 108.264 50.5261C109.022 49.1675 109.645 47.7507 109.847 46.183C109.955 45.3198 109.862 44.4837 109.63 43.6554C108.968 41.2671 107.989 39.0026 106.994 36.7421C105.949 34.3615 104.853 32.0003 103.87 29.5965C103.758 29.3178 103.591 29.0507 103.607 28.6984L103.603 28.6868Z" fill="white"/>
<path d="M69.8803 31.8145C69.8339 30.9242 69.6055 30.0648 69.4391 29.1978C69.4197 29.0932 69.3694 28.9926 69.4274 28.8494C69.741 28.7913 70.0739 28.7294 70.4106 28.6675C71.4093 28.5707 72.4119 28.47 73.4105 28.381C73.875 28.3384 73.8789 28.3462 73.9409 28.7952C74.026 29.3952 74.1112 29.9952 74.1925 30.5951C74.5602 30.5797 74.6221 30.301 74.7576 30.1268C75.555 29.1049 76.5575 28.4004 77.8465 28.1875C79.0387 27.9901 80.1961 28.2068 81.3303 28.59C81.5238 28.6558 81.6167 28.7565 81.5625 28.9771C81.2413 30.2429 80.9239 31.5087 80.6064 32.786C80.0761 32.6544 79.5961 32.5035 79.1046 32.4183C78.3033 32.2751 77.4943 32.248 76.7008 32.4802C75.6556 32.7822 74.9898 33.4867 74.5989 34.4815C74.4983 34.7369 74.5176 34.9963 74.5215 35.2595C74.5524 38.3639 74.5834 41.4722 74.6182 44.5766C74.6182 44.6657 74.626 44.7508 74.6221 44.8398C74.6144 45.525 74.7228 45.4785 74.0028 45.4785C72.8648 45.4785 71.7267 45.4785 70.5887 45.4785C69.8649 45.4785 69.9423 45.5211 69.9732 44.8592C70.1048 42.018 70.2635 39.1807 70.2287 36.3356C70.2094 34.8298 70.1513 33.3202 69.8726 31.8299L69.8803 31.8145Z" fill="white"/>
<path d="M27.8623 36.564C27.8391 39.2581 27.901 42.0761 28.083 44.8902C28.1178 45.4553 28.1139 45.463 27.5372 45.463C26.2908 45.463 25.0444 45.4669 23.798 45.463C23.3683 45.463 23.3528 45.4514 23.3799 44.9598C23.5115 42.7767 23.5463 40.5935 23.5812 38.4065C23.6315 35.3447 23.5193 32.2906 23.047 29.2597C22.9967 28.9462 23.047 28.8339 23.376 28.8029C24.7695 28.6791 26.1592 28.5281 27.5527 28.4004C28.0946 28.35 28.0907 28.3694 28.0598 28.8997C27.9127 31.408 27.8469 33.9202 27.8623 36.5601V36.564Z" fill="white"/>
<path d="M75.1602 -5.04857e-06C76.2362 0.00386579 77.1498 0.607717 77.5214 1.56382C77.9317 2.61668 77.7304 3.63859 76.9136 4.37792C75.0014 6.10431 73.0699 7.81523 71.1461 9.53388C70.1358 10.4358 69.1294 11.3454 68.1191 12.2473C67.7359 12.5918 67.732 12.588 67.314 12.259C66.8262 11.8744 66.7449 11.419 67.0701 10.8925C69.0365 7.68749 71.0029 4.4863 72.9576 1.27737C73.4686 0.433529 74.177 -0.00387589 75.1602 -5.04857e-06Z" fill="#A0A684"/>
<path d="M28.9152 23.2367C28.892 25.6908 26.7282 26.9449 24.6534 26.1592C23.6586 25.7837 23.0586 24.6147 23.1786 23.4767C23.3567 21.8006 24.545 20.7671 26.2985 20.7709C27.6417 20.7709 28.5397 21.4445 28.8417 22.6793C28.8997 22.9115 28.9075 23.1515 28.9152 23.2367Z" fill="white"/>
<path d="M70.3061 23.887C69.8184 20.1594 68.2507 16.9504 65.7192 14.2099C63.9154 12.259 61.7167 10.8268 59.3439 9.66164C55.7247 7.88492 51.9274 7.23075 47.9365 7.9275C44.1934 8.58167 40.9574 10.2887 38.1394 12.8048C34.2879 16.2421 31.737 20.5271 30.0803 25.3695C28.8571 28.9384 28.3849 32.5925 29.0275 36.3472C29.5965 39.6723 30.9938 42.618 33.3047 45.0566C36.9472 48.9042 41.3909 51.2461 46.7133 51.819C48.4049 52.0009 50.0771 51.908 51.7338 51.579C55.446 50.8397 58.5891 48.9971 61.3413 46.4617C65.1115 42.9857 67.6198 38.7007 69.2378 33.866C69.4662 33.1847 69.5784 32.4725 69.8842 31.8183C70.2442 31.3074 69.919 30.8003 69.8261 30.3165C69.6945 29.6236 69.532 28.9771 70.4184 28.6713C70.4261 28.2107 70.4416 27.754 70.4416 27.2933C70.4455 26.1553 70.4571 25.025 70.31 23.887H70.3061ZM63.7102 31.1564C62.5722 34.4118 61.0509 37.4814 59.1194 40.3419C58.98 40.5471 58.9104 40.8374 58.5968 40.8877C58.3065 40.7716 58.2601 40.4968 58.2097 40.2452C58.113 39.7536 58.0123 39.2542 58.0085 38.751C57.9852 36.8466 57.9891 34.9421 58.0085 33.0377C58.0162 32.2248 58.2949 31.9538 59.1039 32.039C59.9555 32.128 60.8071 32.1357 61.6587 32.1474C62.1503 32.1551 62.3786 31.9383 62.429 31.4661C62.487 30.8777 62.4522 30.2855 62.4677 29.6932C62.4793 29.2713 62.2935 29.1088 61.8716 29.1204C60.9735 29.1436 60.0755 29.1358 59.1775 29.1242C58.2833 29.1126 58.171 28.9771 58.1285 28.0946C58.0704 26.8869 58.2252 25.6908 58.2717 24.4908C58.291 23.9644 58.1246 23.7825 57.5904 23.8676C56.8549 23.9838 56.1156 24.0612 55.3763 24.1502C54.6718 24.2354 54.5015 24.3979 54.4744 25.1063C54.4357 26.0895 54.4744 27.0766 54.4589 28.0598C54.4473 28.9965 54.3273 29.1126 53.3905 29.1281C51.6835 29.1552 51.8422 28.892 51.8306 30.7345C51.8306 30.8429 51.8306 30.9551 51.8306 31.0635C51.8306 32.2132 51.8383 32.2209 53.0228 32.1203C54.0137 32.0351 54.1879 32.1783 54.1918 33.1731C54.2034 35.275 54.1841 37.3769 54.1996 39.4787C54.2112 40.7135 54.4434 41.9096 54.8731 43.0747C55.055 43.5702 55.5195 43.9147 55.5776 44.4644C55.5698 44.6037 55.5002 44.7044 55.3995 44.8011C53.4873 46.6204 51.339 48.0488 48.7688 48.7571C45.7263 49.5971 42.8851 49.0629 40.1987 47.4953C39.5562 47.1198 38.9368 46.7095 38.3639 46.2334C38.2478 46.1366 38.1007 46.063 38.0852 45.8889C38.3755 45.6024 38.7433 45.6992 39.08 45.7031C40.6361 45.7224 42.1845 45.7031 43.6941 45.2424C45.3198 44.7508 46.6398 43.8644 47.0656 42.1612C47.6152 39.9549 47.1778 38.1046 45.2269 36.7962C44.1818 36.0995 43.036 35.6079 41.867 35.1744C41.209 34.9305 40.5626 34.6634 39.9471 34.3228C39.2233 33.9241 38.8013 33.266 38.8826 32.6583C38.9717 31.9964 39.5291 31.4738 40.3806 31.2842C42.0296 30.9203 43.6438 31.1835 45.2424 31.5938C46.0359 31.799 46.0398 31.8183 46.1637 31.0364C46.2566 30.4326 46.3921 29.8326 46.4888 29.2287C46.5469 28.8417 46.4037 28.6559 46.0321 28.5862C43.6476 28.141 41.2593 27.9707 38.8788 28.5978C36.3434 29.2675 34.9034 31.4158 35.2905 34.0015C35.4918 35.3485 36.3704 36.2621 37.4582 36.9898C38.4452 37.6517 39.5523 38.0775 40.6439 38.5265C41.4567 38.8594 42.2503 39.2155 42.8928 39.8426C43.3651 40.2994 43.6515 40.818 43.4502 41.4838C43.2605 42.1187 42.7651 42.4515 42.1535 42.5599C39.7807 42.9896 37.4504 42.8425 35.1976 41.9251C34.764 41.2787 34.6015 40.5277 34.4234 39.7923C33.8079 37.2569 33.9589 34.7176 34.4853 32.1899C35.2827 28.3423 36.8117 24.7773 38.7471 21.3787C40.28 18.6846 42.0993 16.2034 44.4218 14.1247C46.4811 12.2822 48.7959 10.9429 51.5712 10.4939C53.5415 10.1765 55.4421 10.3894 57.2769 11.1751C59.8123 12.259 61.949 13.8228 63.4122 16.2072C64.4689 17.9336 65.0069 19.8265 65.1773 21.8432C65.4521 25.0715 64.7592 28.1449 63.7063 31.1526L63.7102 31.1564Z" fill="#A0A684"/>
<path d="M35.2015 41.929C35.426 41.7509 35.6156 41.9445 35.8014 42.0025C37.7562 42.618 39.7458 42.7496 41.7703 42.467C42.0528 42.4283 42.3277 42.3586 42.587 42.2386C43.4193 41.8593 43.6321 41.0232 43.0864 40.2839C42.8348 39.9432 42.5019 39.6955 42.1457 39.4749C41.6077 39.1381 41.0271 38.8788 40.4387 38.6426C39.3007 38.1897 38.1781 37.702 37.1601 37.0091C36.2311 36.3782 35.4879 35.5808 35.2015 34.466C34.6673 32.3951 35.3524 30.1539 37.5588 28.9423C38.7007 28.3152 39.9471 28.1062 41.2245 28.052C42.8464 27.9823 44.4605 28.0791 46.0592 28.4043C46.2101 28.4352 46.3534 28.4894 46.5043 28.5126C46.7366 28.5475 46.7753 28.6791 46.7404 28.8842C46.5508 29.9332 46.3688 30.9822 46.1753 32.0738C45.4282 31.8454 44.7276 31.6093 43.996 31.5009C42.8889 31.3306 41.7819 31.2222 40.6632 31.4119C40.4 31.4545 40.1484 31.5164 39.9084 31.6171C38.8981 32.0467 38.7433 33.1847 39.5949 33.8892C39.8852 34.1292 40.2181 34.2995 40.5587 34.4428C41.3058 34.7524 42.0567 35.0505 42.8077 35.3485C43.6438 35.6776 44.4528 36.0608 45.2115 36.5408C47.5998 38.0581 47.8746 40.5703 47.1236 42.6412C46.7327 43.7212 45.9237 44.4528 44.9095 44.956C43.7134 45.5521 42.4244 45.7727 41.1084 45.8695C40.1019 45.943 39.0955 45.9005 38.0891 45.885C37.1137 45.7998 36.1459 45.6837 35.1937 45.4514C34.6441 45.3198 34.6402 45.2966 34.7331 44.747C34.8957 43.8063 35.0505 42.8657 35.2053 41.9251L35.2015 41.929Z" fill="white"/>
<path d="M55.5776 44.4605C54.606 43.4928 54.3079 42.2425 54.126 40.9535C53.8473 38.9716 54.006 36.9781 53.9789 34.9924C53.9673 34.2492 53.9905 33.506 53.9944 32.7628C53.9944 32.2712 53.9828 32.2596 53.4718 32.2751C52.9454 32.2906 52.4228 32.3177 51.9003 32.3525C51.6448 32.368 51.5558 32.2944 51.5712 32.0235C51.6138 31.1293 51.6409 30.2313 51.6487 29.3371C51.6487 28.9887 51.7803 28.8842 52.1209 28.9152C52.6435 28.9616 53.1699 28.9694 53.6925 28.9849C54.1996 29.0003 54.2073 28.9965 54.2228 28.4933C54.2615 27.2894 54.2808 26.0895 54.3195 24.8856C54.3466 24.0611 54.3583 24.0573 55.1634 23.9644C56.2627 23.8328 57.3659 23.705 58.5194 23.5695C58.4807 24.2663 58.4652 24.9166 58.4072 25.563C58.3181 26.523 58.322 27.4868 58.291 28.4468C58.2755 28.9887 58.291 28.9965 58.8213 28.9849C59.9594 28.9539 61.0935 28.9152 62.2315 28.8765C62.6767 28.861 62.6883 28.8571 62.6728 29.3332C62.6457 30.1848 62.6109 31.0364 62.5683 31.888C62.5451 32.3525 62.5373 32.3602 62.0341 32.3486C61.0084 32.3254 59.9787 32.2944 58.9529 32.2712C58.7981 32.2712 58.6471 32.2712 58.4923 32.2712C58.2678 32.2673 58.1904 32.3796 58.1943 32.5964C58.202 32.9447 58.1904 33.297 58.1904 33.6454C58.1904 35.2634 58.1826 36.8814 58.2097 38.4994C58.2214 39.3084 58.3181 40.1135 58.5968 40.8838C59.131 42.2541 59.9168 42.556 62.2586 42.2696C62.2006 42.9276 62.1464 43.5741 62.0883 44.2205C62.0767 44.3289 62.0496 44.4373 62.038 44.5456C61.9412 45.4127 61.8329 45.6024 60.9967 45.7379C59.4562 45.9856 57.9504 45.854 56.5259 45.1456C56.1737 44.9714 55.8795 44.7121 55.5737 44.4644L55.5776 44.4605Z" fill="white"/>
<path d="M17.6936 37.7485C17.5311 36.0066 16.6679 34.7176 15.1427 33.8621C14.4305 33.4634 13.6873 33.1615 12.8899 32.9951C12.7235 32.9602 12.5377 32.9719 12.4138 32.7667C12.5415 32.5577 12.7312 32.5499 12.886 32.488C13.3776 32.2983 13.8499 32.0699 14.2834 31.7719C16.0485 30.5603 16.5827 28.8068 16.3814 26.7824C16.1917 24.8818 15.0344 23.7167 13.3041 23.0586C13.1222 22.9889 12.9325 22.9309 12.7428 22.8728C11.3648 22.4703 9.95195 22.3503 8.52361 22.3619C5.83337 22.3812 3.14314 22.5244 0.452903 22.4819C0.0193687 22.4741 0.0154979 22.4935 0.0271104 22.9115C0.0271104 22.9773 0.0348521 23.0431 0.038723 23.1089C0.251619 27.4365 0.278715 31.768 0.243878 36.0956C0.220653 39.0491 0.166461 41.9987 0.0271104 44.9482C0.00388539 45.4398 0.015498 45.4476 0.518707 45.4592C1.54835 45.4824 2.57413 45.494 3.60377 45.5211C5.98821 45.5792 8.37265 45.614 10.7377 45.2076C12.2125 44.956 13.6331 44.5495 14.9182 43.7521C16.0911 43.0244 16.9466 42.0374 17.3917 40.7135C17.7169 39.742 17.7904 38.7433 17.6936 37.733V37.7485ZM4.59858 27.3475C4.5947 27.1733 4.58696 26.9991 4.57922 26.825C4.53277 25.9656 4.5289 25.9579 5.40758 25.8379C5.70951 25.7953 6.0153 25.7837 6.3211 25.7643C6.6269 25.745 6.93269 25.7372 7.23849 25.7218C8.07072 25.7101 8.89521 25.7295 9.70035 25.9927C10.9545 26.4069 11.57 27.3049 11.6551 28.5823C11.7403 29.8055 11.268 30.75 10.1687 31.35C9.30552 31.8183 8.35716 31.9925 7.39719 32.0583C6.63464 32.1125 5.86821 32.0699 5.10179 32.097C4.77663 32.1087 4.70309 31.9809 4.69922 31.6751C4.67986 30.2313 4.63341 28.7913 4.59858 27.3475ZM12.8473 39.6491C12.6344 40.5393 12.0848 41.1548 11.2564 41.5303C10.4087 41.9174 9.50293 42.0606 8.58554 42.1496C7.54042 42.2503 6.48755 42.2425 5.43855 42.1806C4.86953 42.1457 4.86953 42.1264 4.84631 41.5613C4.80373 40.6013 4.76502 39.6374 4.7147 38.5226C4.7147 37.6943 4.72631 36.7111 4.70696 35.7279C4.70309 35.426 4.79212 35.2866 5.10179 35.275C6.80883 35.2015 8.512 35.1589 10.1842 35.6234C10.4358 35.6931 10.6835 35.7782 10.9235 35.8789C12.5532 36.5679 13.2499 37.9265 12.8435 39.6491H12.8473Z" fill="white"/>
<path d="M101.044 35.2053C100.731 32.5809 99.4961 30.5526 97.2356 29.1707C95.3427 28.0133 93.2757 27.6765 91.1158 28.0249C88.0849 28.5165 85.7663 30.0842 84.3341 32.848C83.6063 34.257 83.378 35.7898 83.3896 37.3614C83.3896 37.5162 83.3857 37.6672 83.3896 37.822C83.3973 38.0852 83.4012 38.3484 83.4283 38.6078C83.6799 41.3058 84.8837 43.427 87.2217 44.8592C89.2191 46.0785 91.3983 46.4308 93.6589 45.9895C97.2007 45.2966 99.6781 43.2954 100.739 39.7613C101.184 38.2826 101.23 36.7498 101.044 35.2092V35.2053ZM96.1556 39.6374C95.9659 40.2684 95.6447 40.8374 95.2576 41.3716C93.8447 43.3341 90.9222 43.4192 89.401 41.4296C88.3713 40.0864 87.9997 38.5459 87.9959 36.8891C87.9881 35.3447 88.321 33.9008 89.2887 32.6544C89.8423 31.9422 90.539 31.4506 91.4448 31.2725C92.8035 31.0055 93.9454 31.3925 94.886 32.3951C95.3853 32.9293 95.753 33.5486 95.9969 34.2337C96.6395 36.0143 96.6937 37.822 96.1517 39.6336L96.1556 39.6374Z" fill="white"/>
</g>
<defs>
<clipPath id="clip0_2038_946">
<rect width="120" height="57.9465" fill="white"/>
</clipPath>
</defs>
</svg>
